<svg xmlns="http://www.w3.org/2000/svg" viewBox="0 0 1200 1200" width="1200" height="1200" preserveAspectRatio="xMidYMid slice"><g><rect x="0" y="0" width="1200" height="1200" rx="0" fill="none" /><circle cx="1080" cy="600" r="20" fill="#ff6b57" opacity="0.8"/><circle cx="1068" cy="706.8" r="10" fill="#8d80fb" opacity="0.8"/><circle cx="1032.5" cy="808.3" r="10" fill="#ffc857" opacity="0.8"/><circle cx="975.3" cy="899.3" r="20" fill="#ff6b57" opacity="0.8"/><circle cx="899.3" cy="975.3" r="10" fill="#8d80fb" opacity="0.8"/><circle cx="808.3" cy="1032.5" r="10" fill="#ffc857" opacity="0.8"/><circle cx="706.8" cy="1068" r="20" fill="#ff6b57" opacity="0.8"/><circle cx="600" cy="1080" r="10" fill="#8d80fb" opacity="0.8"/><circle cx="493.2" cy="1068" r="10" fill="#ffc857" opacity="0.8"/><circle cx="391.7" cy="1032.5" r="20" fill="#ff6b57" opacity="0.8"/><circle cx="300.7" cy="975.3" r="10" fill="#8d80fb" opacity="0.8"/><circle cx="224.7" cy="899.3" r="10" fill="#ffc857" opacity="0.8"/><circle cx="167.5" cy="808.3" r="20" fill="#ff6b57" opacity="0.8"/><circle cx="132" cy="706.8" r="10" fill="#8d80fb" opacity="0.8"/><circle cx="120" cy="600" r="10" fill="#ffc857" opacity="0.8"/><circle cx="132" cy="493.2" r="20" fill="#ff6b57" opacity="0.8"/><circle cx="167.5" cy="391.7" r="10" fill="#8d80fb" opacity="0.8"/><circle cx="224.7" cy="300.7" r="10" fill="#ffc857" opacity="0.8"/><circle cx="300.7" cy="224.7" r="20" fill="#ff6b57" opacity="0.8"/><circle cx="391.7" cy="167.5" r="10" fill="#8d80fb" opacity="0.8"/><circle cx="493.2" cy="132" r="10" fill="#ffc857" opacity="0.8"/><circle cx="600" cy="120" r="20" fill="#ff6b57" opacity="0.8"/><circle cx="706.8" cy="132" r="10" fill="#8d80fb" opacity="0.8"/><circle cx="808.3" cy="167.5" r="10" fill="#ffc857" opacity="0.8"/><circle cx="899.3" cy="224.7" r="20" fill="#ff6b57" opacity="0.8"/><circle cx="975.3" cy="300.7" r="10" fill="#8d80fb" opacity="0.8"/><circle cx="1032.5" cy="391.7" r="10" fill="#ffc857" opacity="0.8"/><circle cx="1068" cy="493.2" r="20" fill="#ff6b57" opacity="0.8"/><animateTransform attributeName="transform" type="rotate" from="0 600 600" to="360 600 600" dur="60s" repeatCount="indefinite"/></g></svg>