<svg xmlns="http://www.w3.org/2000/svg" viewBox="0 0 528 750" width="528" height="750" preserveAspectRatio="xMidYMid slice"><defs><filter id="b1" x="-60%" y="-60%" width="220%" height="220%"><feGaussianBlur stdDeviation="0.8"/></filter><filter id="b2" x="-60%" y="-60%" width="220%" height="220%"><feGaussianBlur stdDeviation="1.6"/></filter><filter id="b3" x="-60%" y="-60%" width="220%" height="220%"><feGaussianBlur stdDeviation="2.6"/></filter><filter id="b5" x="-60%" y="-60%" width="220%" height="220%"><feGaussianBlur stdDeviation="4.5"/></filter><filter id="b8" x="-60%" y="-60%" width="220%" height="220%"><feGaussianBlur stdDeviation="8"/></filter><radialGradient id="pgl" cx="0.2" cy="0.12" r="0.95"><stop offset="0" stop-color="#ffffff" stop-opacity="0.2"/><stop offset="1" stop-color="#ffffff" stop-opacity="0"/></radialGradient><linearGradient id="pvg" x1="0" y1="0.55" x2="0" y2="1"><stop offset="0" stop-color="#1b1464" stop-opacity="0"/><stop offset="1" stop-color="#1b1464" stop-opacity="0.14"/></linearGradient><filter id="pgr" x="0" y="0" width="100%" height="100%"><feTurbulence type="fractalNoise" baseFrequency="0.9" numOctaves="2" seed="7"/><feColorMatrix type="saturate" values="0"/></filter></defs><rect x="0" y="0" width="528" height="750" rx="0" fill="#f2f0ff" /><path d="M514.2 390C517.3 451.9 501 543.6 459.3 585.3C417.6 627.1 329.9 639.7 264 640.4C198.1 641.2 110.1 631.6 64.1 589.9C18.2 548.1 -14.5 453.6 -11.4 390C-8.4 326.4 36.6 252.5 82.5 208.5C128.4 164.5 204.4 125.2 264 126.1C323.6 126.9 398.6 169.8 440.3 213.7C481.9 257.7 511 328.1 514.2 390Z" fill="#e4e0ff"/><path d="M0 585C132 532.5 264 637.5 396 553.5S501.6 585 528 569.3V750H0Z" fill="#a9eeda"/><path d="M0 645C132 576.8 264 697.5 396 613.5S501.6 645 528 629.3V750H0Z" fill="#1fbf9a"/><circle cx="422.4" cy="135" r="35.6" fill="#ffe7a8"/><circle cx="422.4" cy="135" r="48.1" fill="#ffe7a8" opacity="0.35"/><g transform="translate(158.4 416.6) scale(1.2147239263803682 1.2147239263803682)"><defs><linearGradient id="t493" x1="0" y1="0" x2="1" y2="1"><stop offset="0" stop-color="#494383"/><stop offset="0.5" stop-color="#1b1464"/><stop offset="1" stop-color="#1b1464"/></linearGradient><linearGradient id="b494" x1="0" y1="0" x2="0.6" y2="1"><stop offset="0" stop-color="#5391f7"/><stop offset="1" stop-color="#2f5ac1"/></linearGradient><linearGradient id="k495" x1="0" y1="0" x2="1" y2="1"><stop offset="0" stop-color="#ae886c"/><stop offset="1" stop-color="#925e40"/></linearGradient><linearGradient id="d496" x1="0" y1="0" x2="0.5" y2="1"><stop offset="0" stop-color="#3d377b"/><stop offset="1" stop-color="#1b1464"/></linearGradient></defs><g filter="url(#b3)"><ellipse cx="0" cy="189" rx="50" ry="7" fill="#14142b" opacity="0.28"/></g><defs><linearGradient id="h488" x1="0" y1="0" x2="0.6" y2="1"><stop offset="0" stop-color="#3f3b37"/><stop offset="0.45" stop-color="#2a2521"/><stop offset="1" stop-color="#262035"/></linearGradient><linearGradient id="hl489" x1="0" y1="0" x2="0" y2="1"><stop offset="0" stop-color="#2a2521"/><stop offset="1" stop-color="#231d43"/></linearGradient></defs><path d="M-26 106h24l-3 70h-18z" fill="url(#b494)"/><g filter="url(#b1)"><path d="M-11 108h9l-3 68h-6z" fill="#3263cd" opacity="0.5"/></g><path d="M2 106h24l-3 70h-18z" fill="url(#b494)"/><g filter="url(#b1)"><path d="M17 108h9l-3 68h-6z" fill="#3263cd" opacity="0.5"/></g><path d="M-24 176h18q11 0 13 11q0 3-3 3h-28z" fill="#14142b"/><g filter="url(#b1)"><path d="M-18 179h12" stroke="#8a8a95" stroke-width="2" opacity="0.5"/></g><path d="M-25 188h30" stroke="#fff" stroke-width="2.2" stroke-linecap="round" opacity="0.85"/><path d="M4 176h18q11 0 13 11q0 3-3 3h-28z" fill="#14142b"/><g filter="url(#b1)"><path d="M10 179h12" stroke="#8a8a95" stroke-width="2" opacity="0.5"/></g><path d="M3 188h30" stroke="#fff" stroke-width="2.2" stroke-linecap="round" opacity="0.85"/><path d="M-7 26h14v16Q0 48 -7 42Z" fill="url(#k495)"/><g filter="url(#b1)"><path d="M-7 34Q0 46 7 34V44Q0 50 -7 44Z" fill="#946141" opacity="0.55"/></g><path d="M-31 56C-31 42-17 38 0 38S31 42 31 56L30 112Q0 120 -30 112Z" fill="url(#t493)"/><g filter="url(#b2)"><path d="M8 40C26 42 31 50 31 56L30 112Q16 116 4 118Z" fill="#1b1464" opacity="0.5"/><path d="M-10 70Q0 80 12 72M-14 92Q0 100 16 92" stroke="#1b1464" stroke-width="3" fill="none" stroke-linecap="round" opacity="0.4"/></g><g filter="url(#b1)"><path d="M-24 52C-20 44-8 42 0 42" stroke="#9895b9" stroke-width="3" fill="none" opacity="0.6"/></g><path d="M-9 38Q0 52 9 38" fill="url(#k495)"/><path d="M-9 38Q0 52 9 38" stroke="#1b1464" stroke-width="1.8" fill="none" opacity="0.8"/><path d="M-27 54L-33 82" stroke="url(#t493)" stroke-width="16" stroke-linecap="round" fill="none"/><path d="M-33 82L-31 110" stroke="url(#k495)" stroke-width="11.5" stroke-linecap="round" fill="none"/><g filter="url(#b1)"><path d="M-33 82L-31 110" stroke="#946141" stroke-width="3" stroke-linecap="round" fill="none" opacity="0.4" transform="translate(-3.5 0)"/></g><ellipse cx="-31" cy="110" rx="6.4" ry="7" fill="url(#k495)" transform="rotate(-14 -31 110)"/><path d="M27 54L33 82" stroke="#1b1464" stroke-width="16" stroke-linecap="round" fill="none"/><path d="M33 82L31 110" stroke="url(#k495)" stroke-width="11.5" stroke-linecap="round" fill="none"/><g filter="url(#b1)"><path d="M33 82L31 110" stroke="#946141" stroke-width="3" stroke-linecap="round" fill="none" opacity="0.4" transform="translate(3.5 0)"/></g><ellipse cx="31" cy="110" rx="6.4" ry="7" fill="url(#k495)" transform="rotate(14 31 110)"/><g transform="translate(0 15) scale(1.14)"><defs><radialGradient id="s490" cx="0.38" cy="0.3" r="0.85"><stop offset="0" stop-color="#aa8264"/><stop offset="0.6" stop-color="#9a6a47"/><stop offset="1" stop-color="#956242"/></radialGradient></defs><ellipse cx="-21" cy="4" rx="3.8" ry="4.8" fill="#976544"/><ellipse cx="-21.4" cy="4.4" rx="1.6" ry="2.6" fill="#905c3e" opacity="0.6"/><ellipse cx="21" cy="4" rx="3.8" ry="4.8" fill="#976544"/><ellipse cx="21.4" cy="4.4" rx="1.6" ry="2.6" fill="#905c3e" opacity="0.6"/><path d="M-21-2C-21-18-11-24 0-24C11-24 21-18 21-2C21 12 12 24 0 25C-12 24-21 12-21-2Z" fill="url(#s490)"/><g filter="url(#b2)"><path d="M11-22C24-16 24 8 14 19C19 6 18-10 11-22Z" fill="#946141" opacity="0.38"/></g><g filter="url(#b3)"><ellipse cx="-3" cy="-13" rx="9" ry="4" fill="#fff" opacity="0.28"/><ellipse cx="0" cy="24" rx="12" ry="3.6" fill="#8d573b" opacity="0.3"/></g><defs><radialGradient id="i491" cx="0.5" cy="0.5" r="0.5"><stop offset="0" stop-color="#6b4a32"/><stop offset="1" stop-color="#2a1810"/></radialGradient><linearGradient id="l492" x1="0" y1="0" x2="0" y2="1"><stop offset="0" stop-color="#d9584a"/><stop offset="1" stop-color="#b73a36"/></linearGradient></defs><g filter="url(#b1)"><ellipse cx="-8" cy="-2.6" rx="6.4" ry="2.4" fill="#8d573b" opacity="0.4"/><ellipse cx="8" cy="-2.6" rx="6.4" ry="2.4" fill="#8d573b" opacity="0.4"/></g><path d="M-13.2-5Q-8.4-9.4-3.2-6.8Q-8.4-7.4-13.2-5Z" fill="#28222b"/><path d="M3.2-6.8Q8.4-9.4 13.2-5Q8.4-7.4 3.2-6.8Z" fill="#28222b"/><path d="M-12.6 0.6Q-8 4.4 -3.4000000000000004 0.6" stroke="#14142b" stroke-width="1.7" fill="none" stroke-linecap="round"/><path d="M-12 1.6l-1.4 1.6M-8 3l0 1.8M-4 1.6l1.4 1.6" stroke="#14142b" stroke-width="0.9" stroke-linecap="round"/><path d="M3.4000000000000004 0.6Q8 4.4 12.6 0.6" stroke="#14142b" stroke-width="1.7" fill="none" stroke-linecap="round"/><path d="M4 1.6l-1.4 1.6M8 3l0 1.8M12 1.6l1.4 1.6" stroke="#14142b" stroke-width="0.9" stroke-linecap="round"/><g filter="url(#b1)"><path d="M1.8-1Q4 5.5 1 8" stroke="#8d573b" stroke-width="2.6" fill="none" stroke-linecap="round" opacity="0.55"/></g><g filter="url(#b1)"><circle cx="0" cy="6.4" r="1.7" fill="#fff" opacity="0.4"/></g><path d="M-2.6 8.6q1.2 1 2.6 0M0.4 8.6q1.2 1 2.6 0" stroke="#8a5339" stroke-width="0.9" fill="none" stroke-linecap="round"/><path d="M-5.8 14.6Q-2.8 12.6 0 13.7Q2.8 12.6 5.8 14.6Q0 15.8-5.8 14.6Z" fill="#a93430"/><path d="M-5.4 14.8Q0 20.6 5.4 14.8Q0 16.8-5.4 14.8Z" fill="url(#l492)"/><path d="M-5.8 14.6q-1-.4-1.6-1.4M5.8 14.6q1-.4 1.6-1.4" stroke="#8d573b" stroke-width="0.9" fill="none" stroke-linecap="round" opacity="0.6"/><g filter="url(#b3)"><circle cx="-13" cy="9.5" r="4.4" fill="#ff6b57" opacity="0.32"/><circle cx="13" cy="9.5" r="4.4" fill="#ff6b57" opacity="0.32"/></g><g filter="url(#b2)"><path d="M-22-2C-14-12 10-12 22-2L22 5C10-6-14-6-22 5Z" fill="#3a1d14" opacity="0.2"/></g><path d="M-23 0C-25-22-8-31 4-30C18-29 25-14 22 0C18-8 12-14 2-15C-8-15-17-10-23 0Z" fill="url(#h488)"/><g filter="url(#b2)"><ellipse cx="-2" cy="-24" rx="13" ry="4" fill="#726f6c" opacity="0.5" transform="rotate(-12 -2 -24)"/></g><path d="M-12-20C-4-25 8-24 15-18" stroke="#726f6c" stroke-width="1.5" fill="none" stroke-linecap="round" opacity="0.55"/></g></g><g transform="translate(369.6 416.6) scale(-1.2147239263803682 1.2147239263803682)"><defs><linearGradient id="t502" x1="0" y1="0" x2="1" y2="1"><stop offset="0" stop-color="#ff8979"/><stop offset="0.5" stop-color="#ff6b57"/><stop offset="1" stop-color="#b14d5b"/></linearGradient><linearGradient id="b503" x1="0" y1="0" x2="0.6" y2="1"><stop offset="0" stop-color="#2e295d"/><stop offset="1" stop-color="#150f51"/></linearGradient><linearGradient id="k504" x1="0" y1="0" x2="1" y2="1"><stop offset="0" stop-color="#d1a583"/><stop offset="1" stop-color="#b37956"/></linearGradient><linearGradient id="d505" x1="0" y1="0" x2="0.5" y2="1"><stop offset="0" stop-color="#ff8170"/><stop offset="1" stop-color="#a84a5c"/></linearGradient></defs><g filter="url(#b3)"><ellipse cx="0" cy="189" rx="50" ry="7" fill="#14142b" opacity="0.28"/></g><defs><linearGradient id="h497" x1="0" y1="0" x2="0.6" y2="1"><stop offset="0" stop-color="#5c473c"/><stop offset="0.45" stop-color="#4a3326"/><stop offset="1" stop-color="#3c2a39"/></linearGradient><linearGradient id="hl498" x1="0" y1="0" x2="0" y2="1"><stop offset="0" stop-color="#4a3326"/><stop offset="1" stop-color="#332445"/></linearGradient></defs><path d="M-27 6C-31-26-14-36 0-36S31-26 27 6C27 30 33 52 28 76C16 80-16 80-28 76C-33 52-27 30-27 6Z" fill="url(#hl498)"/><g filter="url(#b2)"><path d="M-23 12C-26 34-24 56-21 72" stroke="#887870" stroke-width="3.2" fill="none" opacity="0.32"/><path d="M22 14C25 36 24 56 21 70" stroke="#887870" stroke-width="2.4" fill="none" opacity="0.25"/></g><rect x="-14" y="156" width="9" height="22" fill="url(#k504)"/><rect x="5" y="156" width="9" height="22" fill="url(#k504)"/><path d="M-19 176h18q11 0 13 11q0 3-3 3h-28z" fill="#14142b"/><g filter="url(#b1)"><path d="M-13 179h12" stroke="#8a8a95" stroke-width="2" opacity="0.5"/></g><path d="M-20 188h30" stroke="#fff" stroke-width="2.2" stroke-linecap="round" opacity="0.85"/><path d="M4 176h18q11 0 13 11q0 3-3 3h-28z" fill="#14142b"/><g filter="url(#b1)"><path d="M10 179h12" stroke="#8a8a95" stroke-width="2" opacity="0.5"/></g><path d="M3 188h30" stroke="#fff" stroke-width="2.2" stroke-linecap="round" opacity="0.85"/><path d="M-7 26h14v16Q0 48 -7 42Z" fill="url(#k504)"/><g filter="url(#b1)"><path d="M-7 34Q0 46 7 34V44Q0 50 -7 44Z" fill="#b77d58" opacity="0.55"/></g><path d="M-30 56C-30 42-16 38 0 38S30 42 30 56L28 104L44 160C20 166-20 166-44 160L-28 104Z" fill="url(#d505)"/><g filter="url(#b2)"><path d="M6 40C24 42 30 50 28 104L44 160C34 163 20 165 8 165L8 60Z" fill="#c4545a" opacity="0.5"/><path d="M-12 112L-24 160" stroke="#c4545a" stroke-width="3" opacity="0.35"/><path d="M6 112L14 162" stroke="#c4545a" stroke-width="3" opacity="0.3"/></g><g filter="url(#b1)"><path d="M-20 52C-16 44-6 42 0 42" stroke="#ffbcb3" stroke-width="3" fill="none" opacity="0.6"/></g><path d="M-28 104Q0 114 28 104" stroke="#c4545a" stroke-width="2.5" fill="none" opacity="0.7"/><path d="M-9 38Q0 52 9 38" fill="url(#k504)"/><path d="M-9 38Q0 52 9 38" stroke="#c4545a" stroke-width="1.8" fill="none" opacity="0.8"/><path d="M-27 54L-33 82" stroke="url(#t502)" stroke-width="16" stroke-linecap="round" fill="none"/><path d="M-33 82L-31 110" stroke="url(#k504)" stroke-width="11.5" stroke-linecap="round" fill="none"/><g filter="url(#b1)"><path d="M-33 82L-31 110" stroke="#b77d58" stroke-width="3" stroke-linecap="round" fill="none" opacity="0.4" transform="translate(-3.5 0)"/></g><ellipse cx="-31" cy="110" rx="6.4" ry="7" fill="url(#k504)" transform="rotate(-14 -31 110)"/><path d="M27 54L33 82" stroke="#c4545a" stroke-width="16" stroke-linecap="round" fill="none"/><path d="M33 82L31 110" stroke="url(#k504)" stroke-width="11.5" stroke-linecap="round" fill="none"/><g filter="url(#b1)"><path d="M33 82L31 110" stroke="#b77d58" stroke-width="3" stroke-linecap="round" fill="none" opacity="0.4" transform="translate(3.5 0)"/></g><ellipse cx="31" cy="110" rx="6.4" ry="7" fill="url(#k504)" transform="rotate(14 31 110)"/><g transform="translate(0 15) scale(1.14)"><defs><radialGradient id="s499" cx="0.38" cy="0.3" r="0.85"><stop offset="0" stop-color="#cfa07d"/><stop offset="0.6" stop-color="#c68e64"/><stop offset="1" stop-color="#ba815b"/></radialGradient></defs><ellipse cx="-21" cy="4" rx="3.8" ry="4.8" fill="#be865e"/><ellipse cx="-21.4" cy="4.4" rx="1.6" ry="2.6" fill="#af7553" opacity="0.6"/><ellipse cx="21" cy="4" rx="3.8" ry="4.8" fill="#be865e"/><ellipse cx="21.4" cy="4.4" rx="1.6" ry="2.6" fill="#af7553" opacity="0.6"/><path d="M-21-2C-21-18-11-24 0-24C11-24 21-18 21-2C21 12 12 24 0 25C-12 24-21 12-21-2Z" fill="url(#s499)"/><g filter="url(#b2)"><path d="M11-22C24-16 24 8 14 19C19 6 18-10 11-22Z" fill="#b77d58" opacity="0.38"/></g><g filter="url(#b3)"><ellipse cx="-3" cy="-13" rx="9" ry="4" fill="#fff" opacity="0.28"/><ellipse cx="0" cy="24" rx="12" ry="3.6" fill="#a86d4d" opacity="0.3"/></g><defs><radialGradient id="i500" cx="0.5" cy="0.5" r="0.5"><stop offset="0" stop-color="#6b4a32"/><stop offset="1" stop-color="#2a1810"/></radialGradient><linearGradient id="l501" x1="0" y1="0" x2="0" y2="1"><stop offset="0" stop-color="#d9584a"/><stop offset="1" stop-color="#b73a36"/></linearGradient></defs><g filter="url(#b1)"><ellipse cx="-8" cy="-2.6" rx="6.4" ry="2.4" fill="#a86d4d" opacity="0.4"/><ellipse cx="8" cy="-2.6" rx="6.4" ry="2.4" fill="#a86d4d" opacity="0.4"/></g><path d="M-13.2-5Q-8.4-9.4-3.2-6.8Q-8.4-7.4-13.2-5Z" fill="#432e2f"/><path d="M3.2-6.8Q8.4-9.4 13.2-5Q8.4-7.4 3.2-6.8Z" fill="#432e2f"/><path d="M-12.6 0.6Q-8 4.4 -3.4000000000000004 0.6" stroke="#14142b" stroke-width="1.7" fill="none" stroke-linecap="round"/><path d="M-12 1.6l-1.4 1.6M-8 3l0 1.8M-4 1.6l1.4 1.6" stroke="#14142b" stroke-width="0.9" stroke-linecap="round"/><path d="M3.4000000000000004 0.6Q8 4.4 12.6 0.6" stroke="#14142b" stroke-width="1.7" fill="none" stroke-linecap="round"/><path d="M4 1.6l-1.4 1.6M8 3l0 1.8M12 1.6l1.4 1.6" stroke="#14142b" stroke-width="0.9" stroke-linecap="round"/><g filter="url(#b1)"><path d="M1.8-1Q4 5.5 1 8" stroke="#a86d4d" stroke-width="2.6" fill="none" stroke-linecap="round" opacity="0.55"/></g><g filter="url(#b1)"><circle cx="0" cy="6.4" r="1.7" fill="#fff" opacity="0.4"/></g><path d="M-2.6 8.6q1.2 1 2.6 0M0.4 8.6q1.2 1 2.6 0" stroke="#a06547" stroke-width="0.9" fill="none" stroke-linecap="round"/><path d="M-5.8 14.6Q-2.8 12.6 0 13.7Q2.8 12.6 5.8 14.6Q0 15.8-5.8 14.6Z" fill="#a93430"/><path d="M-5.4 14.8Q0 20.6 5.4 14.8Q0 16.8-5.4 14.8Z" fill="url(#l501)"/><path d="M-5.8 14.6q-1-.4-1.6-1.4M5.8 14.6q1-.4 1.6-1.4" stroke="#a86d4d" stroke-width="0.9" fill="none" stroke-linecap="round" opacity="0.6"/><g filter="url(#b3)"><circle cx="-13" cy="9.5" r="4.4" fill="#ff6b57" opacity="0.32"/><circle cx="13" cy="9.5" r="4.4" fill="#ff6b57" opacity="0.32"/></g><g filter="url(#b2)"><path d="M-22-2C-14-12 10-12 22-2L22 5C10-6-14-6-22 5Z" fill="#3a1d14" opacity="0.2"/></g><path d="M-24-2C-22-28 6-35 22-18C24-8 22 0 21 6C16-10-4-17-24 4Z" fill="url(#h497)"/><g filter="url(#b2)"><ellipse cx="-3" cy="-27" rx="15" ry="4.5" fill="#887870" opacity="0.5" transform="rotate(-8 -3 -27)"/></g><path d="M-15-20C-6-27 8-26 15-19" stroke="#887870" stroke-width="1.5" fill="none" stroke-linecap="round" opacity="0.55"/><path d="M-21-6C-16-14-9-18-1-20" stroke="#887870" stroke-width="1.5" fill="none" stroke-linecap="round" opacity="0.4"/></g></g><g transform="translate(248.2 507.8) scale(0.8098159509202454 0.8098159509202454)"><defs><linearGradient id="t511" x1="0" y1="0" x2="1" y2="1"><stop offset="0" stop-color="#ffd379"/><stop offset="0.5" stop-color="#ffc857"/><stop offset="1" stop-color="#b18b5b"/></linearGradient><linearGradient id="b512" x1="0" y1="0" x2="0.6" y2="1"><stop offset="0" stop-color="#363077"/><stop offset="1" stop-color="#1b1464"/></linearGradient><linearGradient id="k513" x1="0" y1="0" x2="1" y2="1"><stop offset="0" stop-color="#d1a583"/><stop offset="1" stop-color="#b37956"/></linearGradient><linearGradient id="d514" x1="0" y1="0" x2="0.5" y2="1"><stop offset="0" stop-color="#ffd070"/><stop offset="1" stop-color="#a8845c"/></linearGradient></defs><g filter="url(#b3)"><ellipse cx="0" cy="189" rx="50" ry="7" fill="#14142b" opacity="0.28"/></g><defs><linearGradient id="h506" x1="0" y1="0" x2="0.6" y2="1"><stop offset="0" stop-color="#3f3b37"/><stop offset="0.45" stop-color="#2a2521"/><stop offset="1" stop-color="#262035"/></linearGradient><linearGradient id="hl507" x1="0" y1="0" x2="0" y2="1"><stop offset="0" stop-color="#2a2521"/><stop offset="1" stop-color="#231d43"/></linearGradient></defs><circle cx="0" cy="-34" r="12" fill="url(#h506)"/><path d="M-26 106h24l-3 70h-18z" fill="url(#b512)"/><g filter="url(#b1)"><path d="M-11 108h9l-3 68h-6z" fill="#1b1464" opacity="0.5"/></g><path d="M2 106h24l-3 70h-18z" fill="url(#b512)"/><g filter="url(#b1)"><path d="M17 108h9l-3 68h-6z" fill="#1b1464" opacity="0.5"/></g><path d="M-24 176h18q11 0 13 11q0 3-3 3h-28z" fill="#14142b"/><g filter="url(#b1)"><path d="M-18 179h12" stroke="#8a8a95" stroke-width="2" opacity="0.5"/></g><path d="M-25 188h30" stroke="#fff" stroke-width="2.2" stroke-linecap="round" opacity="0.85"/><path d="M4 176h18q11 0 13 11q0 3-3 3h-28z" fill="#14142b"/><g filter="url(#b1)"><path d="M10 179h12" stroke="#8a8a95" stroke-width="2" opacity="0.5"/></g><path d="M3 188h30" stroke="#fff" stroke-width="2.2" stroke-linecap="round" opacity="0.85"/><path d="M-7 26h14v16Q0 48 -7 42Z" fill="url(#k513)"/><g filter="url(#b1)"><path d="M-7 34Q0 46 7 34V44Q0 50 -7 44Z" fill="#b77d58" opacity="0.55"/></g><path d="M-31 56C-31 42-17 38 0 38S31 42 31 56L30 112Q0 120 -30 112Z" fill="url(#t511)"/><g filter="url(#b2)"><path d="M8 40C26 42 31 50 31 56L30 112Q16 116 4 118Z" fill="#c4995a" opacity="0.5"/><path d="M-10 70Q0 80 12 72M-14 92Q0 100 16 92" stroke="#c4995a" stroke-width="3" fill="none" stroke-linecap="round" opacity="0.4"/></g><g filter="url(#b1)"><path d="M-24 52C-20 44-8 42 0 42" stroke="#ffe6b3" stroke-width="3" fill="none" opacity="0.6"/></g><path d="M-9 38Q0 52 9 38" fill="url(#k513)"/><path d="M-9 38Q0 52 9 38" stroke="#c4995a" stroke-width="1.8" fill="none" opacity="0.8"/><path d="M-27 54L-33 82" stroke="url(#t511)" stroke-width="16" stroke-linecap="round" fill="none"/><path d="M-33 82L-31 110" stroke="url(#k513)" stroke-width="11.5" stroke-linecap="round" fill="none"/><g filter="url(#b1)"><path d="M-33 82L-31 110" stroke="#b77d58" stroke-width="3" stroke-linecap="round" fill="none" opacity="0.4" transform="translate(-3.5 0)"/></g><ellipse cx="-31" cy="110" rx="6.4" ry="7" fill="url(#k513)" transform="rotate(-14 -31 110)"/><path d="M27 54L33 82" stroke="#c4995a" stroke-width="16" stroke-linecap="round" fill="none"/><path d="M33 82L31 110" stroke="url(#k513)" stroke-width="11.5" stroke-linecap="round" fill="none"/><g filter="url(#b1)"><path d="M33 82L31 110" stroke="#b77d58" stroke-width="3" stroke-linecap="round" fill="none" opacity="0.4" transform="translate(3.5 0)"/></g><ellipse cx="31" cy="110" rx="6.4" ry="7" fill="url(#k513)" transform="rotate(14 31 110)"/><g transform="translate(0 15) scale(1.14)"><defs><radialGradient id="s508" cx="0.38" cy="0.3" r="0.85"><stop offset="0" stop-color="#cfa07d"/><stop offset="0.6" stop-color="#c68e64"/><stop offset="1" stop-color="#ba815b"/></radialGradient></defs><ellipse cx="-21" cy="4" rx="3.8" ry="4.8" fill="#be865e"/><ellipse cx="-21.4" cy="4.4" rx="1.6" ry="2.6" fill="#af7553" opacity="0.6"/><ellipse cx="21" cy="4" rx="3.8" ry="4.8" fill="#be865e"/><ellipse cx="21.4" cy="4.4" rx="1.6" ry="2.6" fill="#af7553" opacity="0.6"/><path d="M-21-2C-21-18-11-24 0-24C11-24 21-18 21-2C21 12 12 24 0 25C-12 24-21 12-21-2Z" fill="url(#s508)"/><g filter="url(#b2)"><path d="M11-22C24-16 24 8 14 19C19 6 18-10 11-22Z" fill="#b77d58" opacity="0.38"/></g><g filter="url(#b3)"><ellipse cx="-3" cy="-13" rx="9" ry="4" fill="#fff" opacity="0.28"/><ellipse cx="0" cy="24" rx="12" ry="3.6" fill="#a86d4d" opacity="0.3"/></g><defs><radialGradient id="i509" cx="0.5" cy="0.5" r="0.5"><stop offset="0" stop-color="#6b4a32"/><stop offset="1" stop-color="#2a1810"/></radialGradient><linearGradient id="l510" x1="0" y1="0" x2="0" y2="1"><stop offset="0" stop-color="#d9584a"/><stop offset="1" stop-color="#b73a36"/></linearGradient></defs><g filter="url(#b1)"><ellipse cx="-8" cy="-2.6" rx="6.4" ry="2.4" fill="#a86d4d" opacity="0.4"/><ellipse cx="8" cy="-2.6" rx="6.4" ry="2.4" fill="#a86d4d" opacity="0.4"/></g><path d="M-13.2-5Q-8.4-9.4-3.2-6.8Q-8.4-7.4-13.2-5Z" fill="#28222b"/><path d="M3.2-6.8Q8.4-9.4 13.2-5Q8.4-7.4 3.2-6.8Z" fill="#28222b"/><path d="M-12.6 0.6Q-8 4.4 -3.4000000000000004 0.6" stroke="#14142b" stroke-width="1.7" fill="none" stroke-linecap="round"/><path d="M-12 1.6l-1.4 1.6M-8 3l0 1.8M-4 1.6l1.4 1.6" stroke="#14142b" stroke-width="0.9" stroke-linecap="round"/><path d="M3.4000000000000004 0.6Q8 4.4 12.6 0.6" stroke="#14142b" stroke-width="1.7" fill="none" stroke-linecap="round"/><path d="M4 1.6l-1.4 1.6M8 3l0 1.8M12 1.6l1.4 1.6" stroke="#14142b" stroke-width="0.9" stroke-linecap="round"/><g filter="url(#b1)"><path d="M1.8-1Q4 5.5 1 8" stroke="#a86d4d" stroke-width="2.6" fill="none" stroke-linecap="round" opacity="0.55"/></g><g filter="url(#b1)"><circle cx="0" cy="6.4" r="1.7" fill="#fff" opacity="0.4"/></g><path d="M-2.6 8.6q1.2 1 2.6 0M0.4 8.6q1.2 1 2.6 0" stroke="#a06547" stroke-width="0.9" fill="none" stroke-linecap="round"/><path d="M-5.8 14.6Q-2.8 12.6 0 13.7Q2.8 12.6 5.8 14.6Q0 15.8-5.8 14.6Z" fill="#a93430"/><path d="M-5.4 14.8Q0 20.6 5.4 14.8Q0 16.8-5.4 14.8Z" fill="url(#l510)"/><path d="M-5.8 14.6q-1-.4-1.6-1.4M5.8 14.6q1-.4 1.6-1.4" stroke="#a86d4d" stroke-width="0.9" fill="none" stroke-linecap="round" opacity="0.6"/><g filter="url(#b3)"><circle cx="-13" cy="9.5" r="4.4" fill="#ff6b57" opacity="0.32"/><circle cx="13" cy="9.5" r="4.4" fill="#ff6b57" opacity="0.32"/></g><g filter="url(#b2)"><path d="M-22-2C-14-12 10-12 22-2L22 5C10-6-14-6-22 5Z" fill="#3a1d14" opacity="0.2"/></g><path d="M-22-2C-22-24-8-32 0-32S22-24 22-2C16-12 8-17 0-17S-16-12-22-2Z" fill="url(#h506)"/><circle cx="0" cy="-35" r="11" fill="url(#h506)"/><g filter="url(#b2)"><ellipse cx="-3" cy="-38" rx="6" ry="3" fill="#726f6c" opacity="0.55" transform="rotate(-20 -3 -38)"/></g><g filter="url(#b2)"><ellipse cx="-3" cy="-22" rx="10" ry="3" fill="#726f6c" opacity="0.4" transform="rotate(-8 -3 -22)"/></g><path d="M-6-37C-2-41 4-41 7-37" stroke="#726f6c" stroke-width="1.5" fill="none" stroke-linecap="round" opacity="0.5"/><path d="M-14-20C-6-26 6-26 14-20" stroke="#726f6c" stroke-width="1.5" fill="none" stroke-linecap="round" opacity="0.45"/></g></g><g transform="translate(295.7 545.6) scale(0.6883435582822086 0.6883435582822086)"><defs><linearGradient id="t520" x1="0" y1="0" x2="1" y2="1"><stop offset="0" stop-color="#e66db0"/><stop offset="0.5" stop-color="#e0489c"/><stop offset="1" stop-color="#9d3689"/></linearGradient><linearGradient id="b521" x1="0" y1="0" x2="0.6" y2="1"><stop offset="0" stop-color="#5391f7"/><stop offset="1" stop-color="#2f5ac1"/></linearGradient><linearGradient id="k522" x1="0" y1="0" x2="1" y2="1"><stop offset="0" stop-color="#ae886c"/><stop offset="1" stop-color="#925e40"/></linearGradient><linearGradient id="d523" x1="0" y1="0" x2="0.5" y2="1"><stop offset="0" stop-color="#e563ab"/><stop offset="1" stop-color="#953487"/></linearGradient></defs><g filter="url(#b3)"><ellipse cx="0" cy="189" rx="50" ry="7" fill="#14142b" opacity="0.28"/></g><defs><linearGradient id="h515" x1="0" y1="0" x2="0.6" y2="1"><stop offset="0" stop-color="#5c473c"/><stop offset="0.45" stop-color="#4a3326"/><stop offset="1" stop-color="#3c2a39"/></linearGradient><linearGradient id="hl516" x1="0" y1="0" x2="0" y2="1"><stop offset="0" stop-color="#4a3326"/><stop offset="1" stop-color="#332445"/></linearGradient></defs><path d="M-26 106h24l-3 70h-18z" fill="url(#b521)"/><g filter="url(#b1)"><path d="M-11 108h9l-3 68h-6z" fill="#3263cd" opacity="0.5"/></g><path d="M2 106h24l-3 70h-18z" fill="url(#b521)"/><g filter="url(#b1)"><path d="M17 108h9l-3 68h-6z" fill="#3263cd" opacity="0.5"/></g><path d="M-24 176h18q11 0 13 11q0 3-3 3h-28z" fill="#14142b"/><g filter="url(#b1)"><path d="M-18 179h12" stroke="#8a8a95" stroke-width="2" opacity="0.5"/></g><path d="M-25 188h30" stroke="#fff" stroke-width="2.2" stroke-linecap="round" opacity="0.85"/><path d="M4 176h18q11 0 13 11q0 3-3 3h-28z" fill="#14142b"/><g filter="url(#b1)"><path d="M10 179h12" stroke="#8a8a95" stroke-width="2" opacity="0.5"/></g><path d="M3 188h30" stroke="#fff" stroke-width="2.2" stroke-linecap="round" opacity="0.85"/><path d="M-7 26h14v16Q0 48 -7 42Z" fill="url(#k522)"/><g filter="url(#b1)"><path d="M-7 34Q0 46 7 34V44Q0 50 -7 44Z" fill="#946141" opacity="0.55"/></g><path d="M-31 56C-31 42-17 38 0 38S31 42 31 56L30 112Q0 120 -30 112Z" fill="url(#t520)"/><g filter="url(#b2)"><path d="M8 40C26 42 31 50 31 56L30 112Q16 116 4 118Z" fill="#ad3a8d" opacity="0.5"/><path d="M-10 70Q0 80 12 72M-14 92Q0 100 16 92" stroke="#ad3a8d" stroke-width="3" fill="none" stroke-linecap="round" opacity="0.4"/></g><g filter="url(#b1)"><path d="M-24 52C-20 44-8 42 0 42" stroke="#f1add2" stroke-width="3" fill="none" opacity="0.6"/></g><path d="M-9 38Q0 52 9 38" fill="url(#k522)"/><path d="M-9 38Q0 52 9 38" stroke="#ad3a8d" stroke-width="1.8" fill="none" opacity="0.8"/><path d="M-27 54L-33 82" stroke="url(#t520)" stroke-width="16" stroke-linecap="round" fill="none"/><path d="M-33 82L-31 110" stroke="url(#k522)" stroke-width="11.5" stroke-linecap="round" fill="none"/><g filter="url(#b1)"><path d="M-33 82L-31 110" stroke="#946141" stroke-width="3" stroke-linecap="round" fill="none" opacity="0.4" transform="translate(-3.5 0)"/></g><ellipse cx="-31" cy="110" rx="6.4" ry="7" fill="url(#k522)" transform="rotate(-14 -31 110)"/><path d="M27 54L33 82" stroke="#ad3a8d" stroke-width="16" stroke-linecap="round" fill="none"/><path d="M33 82L31 110" stroke="url(#k522)" stroke-width="11.5" stroke-linecap="round" fill="none"/><g filter="url(#b1)"><path d="M33 82L31 110" stroke="#946141" stroke-width="3" stroke-linecap="round" fill="none" opacity="0.4" transform="translate(3.5 0)"/></g><ellipse cx="31" cy="110" rx="6.4" ry="7" fill="url(#k522)" transform="rotate(14 31 110)"/><g transform="translate(0 15) scale(1.14)"><defs><radialGradient id="s517" cx="0.38" cy="0.3" r="0.85"><stop offset="0" stop-color="#aa8264"/><stop offset="0.6" stop-color="#9a6a47"/><stop offset="1" stop-color="#956242"/></radialGradient></defs><ellipse cx="-21" cy="4" rx="3.8" ry="4.8" fill="#976544"/><ellipse cx="-21.4" cy="4.4" rx="1.6" ry="2.6" fill="#905c3e" opacity="0.6"/><ellipse cx="21" cy="4" rx="3.8" ry="4.8" fill="#976544"/><ellipse cx="21.4" cy="4.4" rx="1.6" ry="2.6" fill="#905c3e" opacity="0.6"/><path d="M-21-2C-21-18-11-24 0-24C11-24 21-18 21-2C21 12 12 24 0 25C-12 24-21 12-21-2Z" fill="url(#s517)"/><g filter="url(#b2)"><path d="M11-22C24-16 24 8 14 19C19 6 18-10 11-22Z" fill="#946141" opacity="0.38"/></g><g filter="url(#b3)"><ellipse cx="-3" cy="-13" rx="9" ry="4" fill="#fff" opacity="0.28"/><ellipse cx="0" cy="24" rx="12" ry="3.6" fill="#8d573b" opacity="0.3"/></g><defs><radialGradient id="i518" cx="0.5" cy="0.5" r="0.5"><stop offset="0" stop-color="#6b4a32"/><stop offset="1" stop-color="#2a1810"/></radialGradient><linearGradient id="l519" x1="0" y1="0" x2="0" y2="1"><stop offset="0" stop-color="#d9584a"/><stop offset="1" stop-color="#b73a36"/></linearGradient></defs><g filter="url(#b1)"><ellipse cx="-8" cy="-2.6" rx="6.4" ry="2.4" fill="#8d573b" opacity="0.4"/><ellipse cx="8" cy="-2.6" rx="6.4" ry="2.4" fill="#8d573b" opacity="0.4"/></g><path d="M-13.2-5Q-8.4-9.4-3.2-6.8Q-8.4-7.4-13.2-5Z" fill="#432e2f"/><path d="M3.2-6.8Q8.4-9.4 13.2-5Q8.4-7.4 3.2-6.8Z" fill="#432e2f"/><path d="M-12.6 0.6Q-8 4.4 -3.4000000000000004 0.6" stroke="#14142b" stroke-width="1.7" fill="none" stroke-linecap="round"/><path d="M-12 1.6l-1.4 1.6M-8 3l0 1.8M-4 1.6l1.4 1.6" stroke="#14142b" stroke-width="0.9" stroke-linecap="round"/><path d="M3.4000000000000004 0.6Q8 4.4 12.6 0.6" stroke="#14142b" stroke-width="1.7" fill="none" stroke-linecap="round"/><path d="M4 1.6l-1.4 1.6M8 3l0 1.8M12 1.6l1.4 1.6" stroke="#14142b" stroke-width="0.9" stroke-linecap="round"/><g filter="url(#b1)"><path d="M1.8-1Q4 5.5 1 8" stroke="#8d573b" stroke-width="2.6" fill="none" stroke-linecap="round" opacity="0.55"/></g><g filter="url(#b1)"><circle cx="0" cy="6.4" r="1.7" fill="#fff" opacity="0.4"/></g><path d="M-2.6 8.6q1.2 1 2.6 0M0.4 8.6q1.2 1 2.6 0" stroke="#8a5339" stroke-width="0.9" fill="none" stroke-linecap="round"/><path d="M-5.8 14.6Q-2.8 12.6 0 13.7Q2.8 12.6 5.8 14.6Q0 15.8-5.8 14.6Z" fill="#a93430"/><path d="M-5.4 14.8Q0 20.6 5.4 14.8Q0 16.8-5.4 14.8Z" fill="url(#l519)"/><path d="M-5.8 14.6q-1-.4-1.6-1.4M5.8 14.6q1-.4 1.6-1.4" stroke="#8d573b" stroke-width="0.9" fill="none" stroke-linecap="round" opacity="0.6"/><g filter="url(#b3)"><circle cx="-13" cy="9.5" r="4.4" fill="#ff6b57" opacity="0.32"/><circle cx="13" cy="9.5" r="4.4" fill="#ff6b57" opacity="0.32"/></g><g filter="url(#b2)"><path d="M-22-2C-14-12 10-12 22-2L22 5C10-6-14-6-22 5Z" fill="#3a1d14" opacity="0.2"/></g><path d="M-23 0C-25-22-8-31 4-30C18-29 25-14 22 0C18-8 12-14 2-15C-8-15-17-10-23 0Z" fill="url(#h515)"/><g filter="url(#b2)"><ellipse cx="-2" cy="-24" rx="13" ry="4" fill="#887870" opacity="0.5" transform="rotate(-12 -2 -24)"/></g><path d="M-12-20C-4-25 8-24 15-18" stroke="#887870" stroke-width="1.5" fill="none" stroke-linecap="round" opacity="0.55"/></g></g><g transform="translate(42.2 697.5) scale(0.89079754601227)"><g transform="translate(0 -20) rotate(-40)"><path d="M0 0C22.4 -21 22.4 -52.5 0 -70C-22.4 -52.5 -22.4 -21 0 0Z" fill="#1fbf9a"/></g><g transform="translate(0 -20) rotate(-18)"><path d="M0 0C28.8 -27 28.8 -67.5 0 -90C-28.8 -67.5 -28.8 -27 0 0Z" fill="#14a082"/></g><g transform="translate(0 -20) rotate(0)"><path d="M0 0C32 -30 32 -75 0 -100C-32 -75 -32 -30 0 0Z" fill="#0f6654"/></g><g transform="translate(0 -20) rotate(20)"><path d="M0 0C28.2 -26.4 28.2 -66 0 -88C-28.2 -66 -28.2 -26.4 0 0Z" fill="#1fbf9a"/></g><g transform="translate(0 -20) rotate(42)"><path d="M0 0C21.8 -20.4 21.8 -51 0 -68C-21.8 -51 -21.8 -20.4 0 0Z" fill="#14a082"/></g><g transform="translate(0 -20) rotate(-62)"><path d="M0 0C14.7 -13.8 14.7 -34.5 0 -46C-14.7 -34.5 -14.7 -13.8 0 0Z" fill="#0f6654"/></g><g transform="translate(0 -20) rotate(62)"><path d="M0 0C14.1 -13.2 14.1 -33 0 -44C-14.1 -33 -14.1 -13.2 0 0Z" fill="#1fbf9a"/></g><path d="M-26 -22h52l-8 44h-36z" fill="#ff6b57"/><rect x="-30" y="-28" width="60" height="12" rx="5" fill="#ff6b57" /></g><g transform="translate(491 697.5) scale(0.7288343558282209)"><g transform="translate(0 -20) rotate(-40)"><path d="M0 0C22.4 -21 22.4 -52.5 0 -70C-22.4 -52.5 -22.4 -21 0 0Z" fill="#1fbf9a"/></g><g transform="translate(0 -20) rotate(-18)"><path d="M0 0C28.8 -27 28.8 -67.5 0 -90C-28.8 -67.5 -28.8 -27 0 0Z" fill="#14a082"/></g><g transform="translate(0 -20) rotate(0)"><path d="M0 0C32 -30 32 -75 0 -100C-32 -75 -32 -30 0 0Z" fill="#0f6654"/></g><g transform="translate(0 -20) rotate(20)"><path d="M0 0C28.2 -26.4 28.2 -66 0 -88C-28.2 -66 -28.2 -26.4 0 0Z" fill="#1fbf9a"/></g><g transform="translate(0 -20) rotate(42)"><path d="M0 0C21.8 -20.4 21.8 -51 0 -68C-21.8 -51 -21.8 -20.4 0 0Z" fill="#14a082"/></g><g transform="translate(0 -20) rotate(-62)"><path d="M0 0C14.7 -13.8 14.7 -34.5 0 -46C-14.7 -34.5 -14.7 -13.8 0 0Z" fill="#0f6654"/></g><g transform="translate(0 -20) rotate(62)"><path d="M0 0C14.1 -13.2 14.1 -33 0 -44C-14.1 -33 -14.1 -13.2 0 0Z" fill="#1fbf9a"/></g><path d="M-26 -22h52l-8 44h-36z" fill="#1b1464"/><rect x="-30" y="-28" width="60" height="12" rx="5" fill="#1b1464" /></g><defs><linearGradient id="ov" x1="0" y1="0" x2="0" y2="1"><stop offset="0" stop-color="#110c47" stop-opacity="0.65"/><stop offset="0.45" stop-color="#110c47" stop-opacity="0"/><stop offset="1" stop-color="#110c47" stop-opacity="0.35"/></linearGradient></defs><rect x="0" y="0" width="528" height="750" rx="0" fill="url(#ov)" /><text x="34" y="70" font-family="Plus Jakarta Sans, Arial, sans-serif" font-size="40" font-weight="600" fill="#ffffff">Family</text><text x="34" y="116" font-family="Plus Jakarta Sans, Arial, sans-serif" font-size="40" font-weight="600" fill="#ffffff">Therapy</text><circle cx="50" cy="696" r="22" fill="none" stroke="#ffffff" stroke-width="2.5"/><path d="M40 696h20m-8 -8l8 8l-8 8" stroke="#ffffff" stroke-width="2.5" fill="none" stroke-linecap="round" stroke-linejoin="round"/></svg>