<svg width="1440" height="194" viewBox="0 0 1440 194" fill="none" xmlns="http://www.w3.org/2000/svg">
<g clip-path="url(#clip0_18_869)">
<path d="M174.537 50.8414C46.8959 50.8415 -1.20093 85.5287 -1.20093 85.5287V187.31H1441.7V50.8414C1441.7 50.8414 1341.81 90.9813 1247.47 118.09C1054.19 173.625 878.872 146.251 679.553 118.09C491.661 91.5436 364.362 50.8414 174.537 50.8414Z" fill="#e0a483" fill-opacity="0.75"/>
<path d="M165.596 0C33.7 3.98488e-05 -16 47.61 -16 47.61V187.31H1475V0C1475 0 1371.78 55.094 1274.29 92.302C1074.57 168.527 893.409 130.954 687.446 92.302C493.291 55.8657 361.749 -5.9262e-05 165.596 0Z" fill="#e0a483" fill-opacity="0.55"/>
<path d="M174.537 93.5416C46.8959 93.5416 -1.20093 119.076 -1.20093 119.076V194H1441.7V93.5416C1441.7 93.5416 1341.81 123.09 1247.47 143.045C1054.19 183.926 878.872 163.775 679.553 143.045C491.661 123.504 364.362 93.5416 174.537 93.5416Z" fill="#faf6ef"/>
</g>
<defs>
<clipPath id="clip0_18_869">
<rect width="1440" height="194" fill="white"/>
</clipPath>
</defs>
</svg>
