<svg xmlns="http://www.w3.org/2000/svg" viewBox="0 0 570 602" width="570" height="602" preserveAspectRatio="xMidYMid slice"><rect x="0" y="0" width="570" height="602" rx="0" fill="#ffe9e4" /><path d="M533.7 331.1C538.5 393.2 527.1 491.2 485.7 531.8C444.2 572.3 348.3 578.2 285 574.6C221.7 571.1 148.4 550.9 105.7 510.4C63.1 469.8 27.5 389.3 29.1 331.1C30.6 272.9 72.5 201.5 115.1 161.2C157.8 121 228.1 90.1 285 89.8C341.9 89.4 415.3 119.2 456.7 159.4C498.2 199.6 528.9 269 533.7 331.1Z" fill="#f7f7fb"/><g transform="translate(193.8 184.6) scale(1.9 1.9)"><ellipse cx="0" cy="189" rx="50" ry="7" fill="#14142b" opacity="0.1"/><circle cx="0" cy="-34" r="12" fill="#623d3c"/><path d="M-26 106h24l-3 70h-18z" fill="#1b1464"/><path d="M-12 106h10l-3 70h-8z" fill="#1b1464" opacity="0.5"/><path d="M2 106h24l-3 70h-18z" fill="#1b1464"/><path d="M16 106h10l-3 70h-8z" fill="#1b1464" opacity="0.5"/><path d="M-24 176h18q11 0 13 11q0 3-3 3h-28z" fill="#14142b"/><path d="M-25 188h30" stroke="#fff" stroke-width="2.2" stroke-linecap="round" opacity="0.85"/><path d="M4 176h18q11 0 13 11q0 3-3 3h-28z" fill="#14142b"/><path d="M3 188h30" stroke="#fff" stroke-width="2.2" stroke-linecap="round" opacity="0.85"/><path d="M-7 26h14v16Q0 48 -7 42Z" fill="#e3b58f"/><path d="M-7 36Q0 44 7 36V42Q0 48 -7 42Z" fill="#d4a481" opacity="0.6"/><path d="M-31 56C-31 42-17 38 0 38S31 42 31 56L30 112Q0 120 -30 112Z" fill="#3b82f6"/><path d="M0 38C17 38 31 42 31 56L30 112Q16 116 4 118Z" fill="#356cd9" opacity="0.45"/><path d="M-10 70Q0 78 12 72M-14 92Q0 98 16 92" stroke="#356cd9" stroke-width="2" fill="none" stroke-linecap="round" opacity="0.6"/><path d="M-9 38Q0 52 9 38" fill="#e3b58f"/><path d="M-9 38Q0 52 9 38" stroke="#356cd9" stroke-width="2" fill="none"/><path d="M-27 54L-33 82" stroke="#3b82f6" stroke-width="16" stroke-linecap="round" fill="none"/><path d="M-33 82L-31 110" stroke="#e3b58f" stroke-width="11.5" stroke-linecap="round" fill="none"/><path d="M-33 82L-32 96" stroke="#3b82f6" stroke-width="15" stroke-linecap="round" fill="none" opacity="0"/><ellipse cx="-31" cy="110" rx="6.4" ry="7" fill="#e3b58f" transform="rotate(-14 -31 110)"/><ellipse cx="-27" cy="107" rx="2.2" ry="3.4" fill="#d4a481" opacity="0.5"/><path d="M27 54L33 82" stroke="#356cd9" stroke-width="16" stroke-linecap="round" fill="none"/><path d="M33 82L31 110" stroke="#e3b58f" stroke-width="11.5" stroke-linecap="round" fill="none"/><path d="M33 82L32 96" stroke="#356cd9" stroke-width="15" stroke-linecap="round" fill="none" opacity="0"/><ellipse cx="31" cy="110" rx="6.4" ry="7" fill="#e3b58f" transform="rotate(14 31 110)"/><ellipse cx="27" cy="107" rx="2.2" ry="3.4" fill="#d4a481" opacity="0.5"/><g transform="translate(0 15) scale(1.14)"><ellipse cx="-21" cy="4" rx="3.6" ry="4.6" fill="#dbab87"/><ellipse cx="21" cy="4" rx="3.6" ry="4.6" fill="#dbab87"/><ellipse cx="0" cy="0" rx="21" ry="24" fill="#e3b58f"/><path d="M10-22C22-18 24 2 17 16C20 6 19-12 10-22Z" fill="#d9a985" opacity="0.55"/><path d="M-12-6q4-2.6 8 0M4-6q4-2.6 8 0" stroke="#755c77" stroke-width="1.5" fill="none" stroke-linecap="round" opacity="0.8"/><path d="M-11 1q3.5 3.4 7 0M4 1q3.5 3.4 7 0" stroke="#14142b" stroke-width="1.7" fill="none" stroke-linecap="round"/><path d="M0 4q-2.6 6 1.2 7" stroke="#c69373" stroke-width="1.5" fill="none" stroke-linecap="round"/><path d="M-5.5 15q5.5 5 11 0" stroke="#c4413a" stroke-width="2" fill="none" stroke-linecap="round"/><circle cx="-13" cy="10" r="4" fill="#ff6b57" opacity="0.2"/><circle cx="13" cy="10" r="4" fill="#ff6b57" opacity="0.2"/><path d="M-22-2C-22-24-8-32 0-32S22-24 22-2C16-12 8-17 0-17S-16-12-22-2Z" fill="#7a4a2e"/><circle cx="0" cy="-35" r="11" fill="#7a4a2e"/><path d="M-6-37C-2-41 4-41 7-37" stroke="#9f7d69" stroke-width="2.2" fill="none" stroke-linecap="round" opacity="0.7"/><path d="M-14-20C-6-26 6-26 14-20" stroke="#9f7d69" stroke-width="2.2" fill="none" stroke-linecap="round" opacity="0.7"/></g></g><g transform="translate(387.6 184.6) scale(-1.9 1.9)"><ellipse cx="0" cy="189" rx="50" ry="7" fill="#14142b" opacity="0.1"/><circle cx="-24" cy="6" r="11" fill="#262132"/><circle cx="-26" cy="-8" r="11" fill="#262132"/><circle cx="24" cy="6" r="11" fill="#262132"/><circle cx="26" cy="-8" r="11" fill="#262132"/><circle cx="-22" cy="20" r="11" fill="#262132"/><circle cx="22" cy="20" r="11" fill="#262132"/><path d="M-26 106h24l-3 70h-18z" fill="#110c47"/><path d="M-12 106h10l-3 70h-8z" fill="#130e4d" opacity="0.5"/><path d="M2 106h24l-3 70h-18z" fill="#110c47"/><path d="M16 106h10l-3 70h-8z" fill="#130e4d" opacity="0.5"/><path d="M-24 176h18q11 0 13 11q0 3-3 3h-28z" fill="#14142b"/><path d="M-25 188h30" stroke="#fff" stroke-width="2.2" stroke-linecap="round" opacity="0.85"/><path d="M4 176h18q11 0 13 11q0 3-3 3h-28z" fill="#14142b"/><path d="M3 188h30" stroke="#fff" stroke-width="2.2" stroke-linecap="round" opacity="0.85"/><path d="M-7 26h14v16Q0 48 -7 42Z" fill="#9a6a47"/><path d="M-7 36Q0 44 7 36V42Q0 48 -7 42Z" fill="#966343" opacity="0.6"/><path d="M-31 56C-31 42-17 38 0 38S31 42 31 56L30 112Q0 120 -30 112Z" fill="#ff6b57"/><path d="M0 38C17 38 31 42 31 56L30 112Q16 116 4 118Z" fill="#d15a5a" opacity="0.45"/><path d="M-10 70Q0 78 12 72M-14 92Q0 98 16 92" stroke="#d15a5a" stroke-width="2" fill="none" stroke-linecap="round" opacity="0.6"/><path d="M-9 38Q0 52 9 38" fill="#9a6a47"/><path d="M-9 38Q0 52 9 38" stroke="#d15a5a" stroke-width="2" fill="none"/><path d="M-27 54L-33 82" stroke="#ff6b57" stroke-width="16" stroke-linecap="round" fill="none"/><path d="M-33 82L-31 110" stroke="#9a6a47" stroke-width="11.5" stroke-linecap="round" fill="none"/><path d="M-33 82L-32 96" stroke="#ff6b57" stroke-width="15" stroke-linecap="round" fill="none" opacity="0"/><ellipse cx="-31" cy="110" rx="6.4" ry="7" fill="#9a6a47" transform="rotate(-14 -31 110)"/><ellipse cx="-27" cy="107" rx="2.2" ry="3.4" fill="#966343" opacity="0.5"/><path d="M27 54L33 82" stroke="#d15a5a" stroke-width="16" stroke-linecap="round" fill="none"/><path d="M33 82L31 110" stroke="#9a6a47" stroke-width="11.5" stroke-linecap="round" fill="none"/><path d="M33 82L32 96" stroke="#d15a5a" stroke-width="15" stroke-linecap="round" fill="none" opacity="0"/><ellipse cx="31" cy="110" rx="6.4" ry="7" fill="#9a6a47" transform="rotate(14 31 110)"/><ellipse cx="27" cy="107" rx="2.2" ry="3.4" fill="#966343" opacity="0.5"/><g transform="translate(0 15) scale(1.14)"><ellipse cx="-21" cy="4" rx="3.6" ry="4.6" fill="#976645"/><ellipse cx="21" cy="4" rx="3.6" ry="4.6" fill="#976645"/><ellipse cx="0" cy="0" rx="21" ry="24" fill="#9a6a47"/><path d="M10-22C22-18 24 2 17 16C20 6 19-12 10-22Z" fill="#976544" opacity="0.55"/><path d="M-12-6q4-2.6 8 0M4-6q4-2.6 8 0" stroke="#543b57" stroke-width="1.5" fill="none" stroke-linecap="round" opacity="0.8"/><path d="M-11 1q3.5 3.4 7 0M4 1q3.5 3.4 7 0" stroke="#14142b" stroke-width="1.7" fill="none" stroke-linecap="round"/><path d="M0 4q-2.6 6 1.2 7" stroke="#915d3f" stroke-width="1.5" fill="none" stroke-linecap="round"/><path d="M-5.5 15q5.5 5 11 0" stroke="#c4413a" stroke-width="2" fill="none" stroke-linecap="round"/><circle cx="-13" cy="10" r="4" fill="#ff6b57" opacity="0.2"/><circle cx="13" cy="10" r="4" fill="#ff6b57" opacity="0.2"/><circle cx="-18" cy="-20" r="12" fill="#2a2521"/><circle cx="-6" cy="-27" r="12" fill="#2a2521"/><circle cx="8" cy="-27" r="12" fill="#2a2521"/><circle cx="19" cy="-19" r="12" fill="#2a2521"/><circle cx="-24" cy="-6" r="12" fill="#2a2521"/><circle cx="24" cy="-6" r="12" fill="#2a2521"/><circle cx="0" cy="-22" r="12" fill="#2a2521"/><circle cx="-8" cy="-26" r="4" fill="#66625f" opacity="0.5"/><circle cx="10" cy="-24" r="4" fill="#66625f" opacity="0.5"/></g></g><circle cx="159.6" cy="60.2" r="8" fill="#ffffff"/><circle cx="193.8" cy="36.1" r="12" fill="#ffffff"/><ellipse cx="267.9" cy="42.1" rx="40" ry="24" fill="#ffffff"/><circle cx="245.1" cy="42.1" r="4" fill="#8d80fb"/><circle cx="267.9" cy="42.1" r="4" fill="#8d80fb"/><circle cx="290.7" cy="42.1" r="4" fill="#8d80fb"/></svg>