<svg xmlns="http://www.w3.org/2000/svg" viewBox="0 0 180 180" width="180" height="180" preserveAspectRatio="xMidYMid slice"><rect x="0" y="0" width="180" height="180" rx="0" fill="#cfc9ff" /><path d="M166.7 90C167.2 109.3 162.2 134.1 149.4 149.4C136.6 164.6 110.4 180.8 90 181.5C69.6 182.1 40.2 168.4 26.9 153.1C13.5 137.9 10.1 111.3 9.9 90C9.7 68.7 12.1 39.8 25.5 25.5C38.8 11.1 69.8 2.7 90 4C110.2 5.3 133.9 19 146.7 33.3C159.5 47.6 166.3 70.7 166.7 90Z" fill="#f7f7fb"/><g transform="translate(14.4 180) rotate(18)"><path d="M0 0C18.4 -18.4 18.4 -45.9 0 -61.2C-18.4 -45.9 -18.4 -18.4 0 0Z" fill="#1fbf9a"/></g><g transform="translate(25.2 180) rotate(-6)"><path d="M0 0C14 -14 14 -35.1 0 -46.8C-14 -35.1 -14 -14 0 0Z" fill="#14a082"/></g><g transform="translate(167.4 180) rotate(-20)"><path d="M0 0C16.2 -16.2 16.2 -40.5 0 -54C-16.2 -40.5 -16.2 -16.2 0 0Z" fill="#14a082"/></g><g transform="translate(156.6 180) rotate(8)"><path d="M0 0C11.9 -11.9 11.9 -29.7 0 -39.6C-11.9 -29.7 -11.9 -11.9 0 0Z" fill="#1fbf9a"/></g><path d="M25.200000000000003 20.700000000000003Q26.388 29.412000000000003 35.1 30.6Q26.388 31.788 25.200000000000003 40.5Q24.012000000000004 31.788 15.300000000000002 30.6Q24.012000000000004 29.412000000000003 25.200000000000003 20.700000000000003Z" fill="#ffffff" opacity="0.95"/><path d="M156.6 41.4Q157.464 47.736000000000004 163.79999999999998 48.6Q157.464 49.464 156.6 55.800000000000004Q155.736 49.464 149.4 48.6Q155.736 47.736000000000004 156.6 41.4Z" fill="#ffffff" opacity="0.9"/><path d="M140.4 16.919999999999998Q140.9616 21.0384 145.08 21.599999999999998Q140.9616 22.161599999999996 140.4 26.279999999999998Q139.8384 22.161599999999996 135.72 21.599999999999998Q139.8384 21.0384 140.4 16.919999999999998Z" fill="#ffc857" opacity="0.95"/><g transform="translate(90 81.9) scale(2)"><circle cx="-24" cy="6" r="11" fill="#262132"/><circle cx="-26" cy="-8" r="11" fill="#262132"/><circle cx="24" cy="6" r="11" fill="#262132"/><circle cx="26" cy="-8" r="11" fill="#262132"/><circle cx="-22" cy="20" r="11" fill="#262132"/><circle cx="22" cy="20" r="11" fill="#262132"/></g><path d="M7.2 180C7.2 147.6 36 132.3 72 130.5L108 130.5C144 132.3 172.8 147.6 172.8 180Z" fill="#e0489c"/><path d="M90 130.5L108 130.5C144 132.3 172.8 147.6 172.8 180L111.6 180Z" fill="#b93e91" opacity="0.4"/><path d="M78.3 110.5h23.4V135.9Q90 144 78.3 135.9Z" fill="#9a6a47"/><path d="M78.3 110.5h23.4v23.9Q90 148.7 78.3 134.4Z" fill="#966343" opacity="0.55"/><path d="M78.3 135.9Q90 144 101.7 135.9" stroke="#b93e91" stroke-width="2.2" fill="none" stroke-linecap="round"/><g transform="translate(90 81.9) scale(2)"><ellipse cx="-21" cy="4" rx="3.6" ry="4.6" fill="#976645"/><ellipse cx="21" cy="4" rx="3.6" ry="4.6" fill="#976645"/><ellipse cx="0" cy="0" rx="21" ry="24" fill="#9a6a47"/><path d="M10-22C22-18 24 2 17 16C20 6 19-12 10-22Z" fill="#976544" opacity="0.55"/><path d="M-12-6q4-2.6 8 0M4-6q4-2.6 8 0" stroke="#543b57" stroke-width="1.5" fill="none" stroke-linecap="round" opacity="0.8"/><ellipse cx="-8" cy="1" rx="2.2" ry="2.9" fill="#14142b"/><ellipse cx="8" cy="1" rx="2.2" ry="2.9" fill="#14142b"/><circle cx="-7.3" cy="0" r="0.8" fill="#fff"/><circle cx="8.7" cy="0" r="0.8" fill="#fff"/><path d="M0 4q-2.6 6 1.2 7" stroke="#915d3f" stroke-width="1.5" fill="none" stroke-linecap="round"/><path d="M-5.5 15q5.5 5 11 0" stroke="#c4413a" stroke-width="2" fill="none" stroke-linecap="round"/><circle cx="-13" cy="10" r="4" fill="#ff6b57" opacity="0.2"/><circle cx="13" cy="10" r="4" fill="#ff6b57" opacity="0.2"/><circle cx="-18" cy="-20" r="12" fill="#2a2521"/><circle cx="-6" cy="-27" r="12" fill="#2a2521"/><circle cx="8" cy="-27" r="12" fill="#2a2521"/><circle cx="19" cy="-19" r="12" fill="#2a2521"/><circle cx="-24" cy="-6" r="12" fill="#2a2521"/><circle cx="24" cy="-6" r="12" fill="#2a2521"/><circle cx="0" cy="-22" r="12" fill="#2a2521"/><circle cx="-8" cy="-26" r="4" fill="#66625f" opacity="0.5"/><circle cx="10" cy="-24" r="4" fill="#66625f" opacity="0.5"/></g></svg>