<svg xmlns="http://www.w3.org/2000/svg" viewBox="0 0 524 654" width="524" height="654" preserveAspectRatio="xMidYMid slice"><defs><filter id="b1" x="-60%" y="-60%" width="220%" height="220%"><feGaussianBlur stdDeviation="0.8"/></filter><filter id="b2" x="-60%" y="-60%" width="220%" height="220%"><feGaussianBlur stdDeviation="1.6"/></filter><filter id="b3" x="-60%" y="-60%" width="220%" height="220%"><feGaussianBlur stdDeviation="2.6"/></filter><filter id="b5" x="-60%" y="-60%" width="220%" height="220%"><feGaussianBlur stdDeviation="4.5"/></filter><filter id="b8" x="-60%" y="-60%" width="220%" height="220%"><feGaussianBlur stdDeviation="8"/></filter><radialGradient id="pgl" cx="0.2" cy="0.12" r="0.95"><stop offset="0" stop-color="#ffffff" stop-opacity="0.2"/><stop offset="1" stop-color="#ffffff" stop-opacity="0"/></radialGradient><linearGradient id="pvg" x1="0" y1="0.55" x2="0" y2="1"><stop offset="0" stop-color="#1b1464" stop-opacity="0"/><stop offset="1" stop-color="#1b1464" stop-opacity="0.14"/></linearGradient><filter id="pgr" x="0" y="0" width="100%" height="100%"><feTurbulence type="fractalNoise" baseFrequency="0.9" numOctaves="2" seed="7"/><feColorMatrix type="saturate" values="0"/></filter></defs><rect x="0" y="0" width="524" height="654" rx="0" fill="#f2f0ff" /><circle cx="262" cy="261.6" r="188.6" fill="#ffe7a8" opacity="0.6"/><rect x="0" y="523.2" width="524" height="130.8" rx="0" fill="#e4e0ff" /><ellipse cx="262" cy="549.4" rx="178.2" ry="14" fill="#ff6b57"/><g transform="translate(262 179.1) scale(1.9 1.9)"><defs><linearGradient id="t538" x1="0" y1="0" x2="1" y2="1"><stop offset="0" stop-color="#ffffff"/><stop offset="0.5" stop-color="#ffffff"/><stop offset="1" stop-color="#b1afca"/></linearGradient><linearGradient id="b539" x1="0" y1="0" x2="0.6" y2="1"><stop offset="0" stop-color="#363077"/><stop offset="1" stop-color="#1b1464"/></linearGradient><linearGradient id="k540" x1="0" y1="0" x2="1" y2="1"><stop offset="0" stop-color="#e9c4a5"/><stop offset="1" stop-color="#c99776"/></linearGradient><linearGradient id="d541" x1="0" y1="0" x2="0.5" y2="1"><stop offset="0" stop-color="#ffffff"/><stop offset="1" stop-color="#a8a6c4"/></linearGradient></defs><g filter="url(#b3)"><ellipse cx="0" cy="189" rx="50" ry="7" fill="#14142b" opacity="0.28"/></g><defs><linearGradient id="h533" x1="0" y1="0" x2="0.6" y2="1"><stop offset="0" stop-color="#5c473c"/><stop offset="0.45" stop-color="#4a3326"/><stop offset="1" stop-color="#3c2a39"/></linearGradient><linearGradient id="hl534" x1="0" y1="0" x2="0" y2="1"><stop offset="0" stop-color="#4a3326"/><stop offset="1" stop-color="#332445"/></linearGradient></defs><circle cx="0" cy="-34" r="12" fill="url(#h533)"/><path d="M-26 106h24l-3 70h-18z" fill="url(#b539)"/><g filter="url(#b1)"><path d="M-11 108h9l-3 68h-6z" fill="#1b1464" opacity="0.5"/></g><path d="M2 106h24l-3 70h-18z" fill="url(#b539)"/><g filter="url(#b1)"><path d="M17 108h9l-3 68h-6z" fill="#1b1464" opacity="0.5"/></g><path d="M-24 176h18q11 0 13 11q0 3-3 3h-28z" fill="#14142b"/><g filter="url(#b1)"><path d="M-18 179h12" stroke="#8a8a95" stroke-width="2" opacity="0.5"/></g><path d="M-25 188h30" stroke="#fff" stroke-width="2.2" stroke-linecap="round" opacity="0.85"/><path d="M4 176h18q11 0 13 11q0 3-3 3h-28z" fill="#14142b"/><g filter="url(#b1)"><path d="M10 179h12" stroke="#8a8a95" stroke-width="2" opacity="0.5"/></g><path d="M3 188h30" stroke="#fff" stroke-width="2.2" stroke-linecap="round" opacity="0.85"/><path d="M-7 26h14v16Q0 48 -7 42Z" fill="url(#k540)"/><g filter="url(#b1)"><path d="M-7 34Q0 46 7 34V44Q0 50 -7 44Z" fill="#ce9d7b" opacity="0.55"/></g><path d="M-31 56C-31 42-17 38 0 38S31 42 31 56L30 112Q0 120 -30 112Z" fill="url(#t538)"/><g filter="url(#b2)"><path d="M8 40C26 42 31 50 31 56L30 112Q16 116 4 118Z" fill="#c4c2d7" opacity="0.5"/><path d="M-10 70Q0 80 12 72M-14 92Q0 100 16 92" stroke="#c4c2d7" stroke-width="3" fill="none" stroke-linecap="round" opacity="0.4"/></g><g filter="url(#b1)"><path d="M-24 52C-20 44-8 42 0 42" stroke="#ffffff" stroke-width="3" fill="none" opacity="0.6"/></g><path d="M-9 38Q0 52 9 38" fill="url(#k540)"/><path d="M-9 38Q0 52 9 38" stroke="#c4c2d7" stroke-width="1.8" fill="none" opacity="0.8"/><path d="M-26 52L-44 28" stroke="url(#t538)" stroke-width="16" stroke-linecap="round" fill="none"/><path d="M-44 28L-54 3" stroke="url(#k540)" stroke-width="11.5" stroke-linecap="round" fill="none"/><g filter="url(#b1)"><path d="M-44 28L-54 3" stroke="#ce9d7b" stroke-width="3" stroke-linecap="round" fill="none" opacity="0.4" transform="translate(-3.5 0)"/></g><ellipse cx="-54" cy="3" rx="6.4" ry="7" fill="url(#k540)" transform="rotate(-14 -54 3)"/><path d="M26 52L44 28" stroke="#c4c2d7" stroke-width="16" stroke-linecap="round" fill="none"/><path d="M44 28L54 3" stroke="url(#k540)" stroke-width="11.5" stroke-linecap="round" fill="none"/><g filter="url(#b1)"><path d="M44 28L54 3" stroke="#ce9d7b" stroke-width="3" stroke-linecap="round" fill="none" opacity="0.4" transform="translate(3.5 0)"/></g><ellipse cx="54" cy="3" rx="6.4" ry="7" fill="url(#k540)" transform="rotate(14 54 3)"/><g transform="translate(0 15) scale(1.14)"><defs><radialGradient id="s535" cx="0.38" cy="0.3" r="0.85"><stop offset="0" stop-color="#e7c1a1"/><stop offset="0.6" stop-color="#e3b58f"/><stop offset="1" stop-color="#d2a17f"/></radialGradient></defs><ellipse cx="-21" cy="4" rx="3.8" ry="4.8" fill="#d9a985"/><ellipse cx="-21.4" cy="4.4" rx="1.6" ry="2.6" fill="#c49071" opacity="0.6"/><ellipse cx="21" cy="4" rx="3.8" ry="4.8" fill="#d9a985"/><ellipse cx="21.4" cy="4.4" rx="1.6" ry="2.6" fill="#c49071" opacity="0.6"/><path d="M-21-2C-21-18-11-24 0-24C11-24 21-18 21-2C21 12 12 24 0 25C-12 24-21 12-21-2Z" fill="url(#s535)"/><g filter="url(#b2)"><path d="M11-22C24-16 24 8 14 19C19 6 18-10 11-22Z" fill="#ce9d7b" opacity="0.38"/></g><g filter="url(#b3)"><ellipse cx="-3" cy="-13" rx="9" ry="4" fill="#fff" opacity="0.28"/><ellipse cx="0" cy="24" rx="12" ry="3.6" fill="#b98467" opacity="0.3"/></g><defs><radialGradient id="i536" cx="0.5" cy="0.5" r="0.5"><stop offset="0" stop-color="#6b4a32"/><stop offset="1" stop-color="#2a1810"/></radialGradient><linearGradient id="l537" x1="0" y1="0" x2="0" y2="1"><stop offset="0" stop-color="#d9584a"/><stop offset="1" stop-color="#b73a36"/></linearGradient></defs><g filter="url(#b1)"><ellipse cx="-8" cy="-2.6" rx="6.4" ry="2.4" fill="#b98467" opacity="0.4"/><ellipse cx="8" cy="-2.6" rx="6.4" ry="2.4" fill="#b98467" opacity="0.4"/></g><path d="M-13.2-5Q-8.4-9.4-3.2-6.8Q-8.4-7.4-13.2-5Z" fill="#432e2f"/><path d="M3.2-6.8Q8.4-9.4 13.2-5Q8.4-7.4 3.2-6.8Z" fill="#432e2f"/><path d="M-12.6 0.6Q-8 4.4 -3.4000000000000004 0.6" stroke="#14142b" stroke-width="1.7" fill="none" stroke-linecap="round"/><path d="M-12 1.6l-1.4 1.6M-8 3l0 1.8M-4 1.6l1.4 1.6" stroke="#14142b" stroke-width="0.9" stroke-linecap="round"/><path d="M3.4000000000000004 0.6Q8 4.4 12.6 0.6" stroke="#14142b" stroke-width="1.7" fill="none" stroke-linecap="round"/><path d="M4 1.6l-1.4 1.6M8 3l0 1.8M12 1.6l1.4 1.6" stroke="#14142b" stroke-width="0.9" stroke-linecap="round"/><g filter="url(#b1)"><path d="M1.8-1Q4 5.5 1 8" stroke="#b98467" stroke-width="2.6" fill="none" stroke-linecap="round" opacity="0.55"/></g><g filter="url(#b1)"><circle cx="0" cy="6.4" r="1.7" fill="#fff" opacity="0.4"/></g><path d="M-2.6 8.6q1.2 1 2.6 0M0.4 8.6q1.2 1 2.6 0" stroke="#af785d" stroke-width="0.9" fill="none" stroke-linecap="round"/><path d="M-5.8 14.6Q-2.8 12.6 0 13.7Q2.8 12.6 5.8 14.6Q0 15.8-5.8 14.6Z" fill="#a93430"/><path d="M-5.4 14.8Q0 20.6 5.4 14.8Q0 16.8-5.4 14.8Z" fill="url(#l537)"/><path d="M-5.8 14.6q-1-.4-1.6-1.4M5.8 14.6q1-.4 1.6-1.4" stroke="#b98467" stroke-width="0.9" fill="none" stroke-linecap="round" opacity="0.6"/><g filter="url(#b3)"><circle cx="-13" cy="9.5" r="4.4" fill="#ff6b57" opacity="0.32"/><circle cx="13" cy="9.5" r="4.4" fill="#ff6b57" opacity="0.32"/></g><g filter="url(#b2)"><path d="M-22-2C-14-12 10-12 22-2L22 5C10-6-14-6-22 5Z" fill="#3a1d14" opacity="0.2"/></g><path d="M-22-2C-22-24-8-32 0-32S22-24 22-2C16-12 8-17 0-17S-16-12-22-2Z" fill="url(#h533)"/><circle cx="0" cy="-35" r="11" fill="url(#h533)"/><g filter="url(#b2)"><ellipse cx="-3" cy="-38" rx="6" ry="3" fill="#887870" opacity="0.55" transform="rotate(-20 -3 -38)"/></g><g filter="url(#b2)"><ellipse cx="-3" cy="-22" rx="10" ry="3" fill="#887870" opacity="0.4" transform="rotate(-8 -3 -22)"/></g><path d="M-6-37C-2-41 4-41 7-37" stroke="#887870" stroke-width="1.5" fill="none" stroke-linecap="round" opacity="0.5"/><path d="M-14-20C-6-26 6-26 14-20" stroke="#887870" stroke-width="1.5" fill="none" stroke-linecap="round" opacity="0.45"/></g></g><g transform="translate(62.9 608.2) scale(1.3)"><g transform="translate(0 -20) rotate(-40)"><path d="M0 0C22.4 -21 22.4 -52.5 0 -70C-22.4 -52.5 -22.4 -21 0 0Z" fill="#1fbf9a"/></g><g transform="translate(0 -20) rotate(-18)"><path d="M0 0C28.8 -27 28.8 -67.5 0 -90C-28.8 -67.5 -28.8 -27 0 0Z" fill="#14a082"/></g><g transform="translate(0 -20) rotate(0)"><path d="M0 0C32 -30 32 -75 0 -100C-32 -75 -32 -30 0 0Z" fill="#0f6654"/></g><g transform="translate(0 -20) rotate(20)"><path d="M0 0C28.2 -26.4 28.2 -66 0 -88C-28.2 -66 -28.2 -26.4 0 0Z" fill="#1fbf9a"/></g><g transform="translate(0 -20) rotate(42)"><path d="M0 0C21.8 -20.4 21.8 -51 0 -68C-21.8 -51 -21.8 -20.4 0 0Z" fill="#14a082"/></g><g transform="translate(0 -20) rotate(-62)"><path d="M0 0C14.7 -13.8 14.7 -34.5 0 -46C-14.7 -34.5 -14.7 -13.8 0 0Z" fill="#0f6654"/></g><g transform="translate(0 -20) rotate(62)"><path d="M0 0C14.1 -13.2 14.1 -33 0 -44C-14.1 -33 -14.1 -13.2 0 0Z" fill="#1fbf9a"/></g><path d="M-26 -22h52l-8 44h-36z" fill="#ff6b57"/><rect x="-30" y="-28" width="60" height="12" rx="5" fill="#ff6b57" /></g><g transform="translate(471.6 608.2) scale(1)"><g transform="translate(0 -20) rotate(-40)"><path d="M0 0C22.4 -21 22.4 -52.5 0 -70C-22.4 -52.5 -22.4 -21 0 0Z" fill="#1fbf9a"/></g><g transform="translate(0 -20) rotate(-18)"><path d="M0 0C28.8 -27 28.8 -67.5 0 -90C-28.8 -67.5 -28.8 -27 0 0Z" fill="#14a082"/></g><g transform="translate(0 -20) rotate(0)"><path d="M0 0C32 -30 32 -75 0 -100C-32 -75 -32 -30 0 0Z" fill="#0f6654"/></g><g transform="translate(0 -20) rotate(20)"><path d="M0 0C28.2 -26.4 28.2 -66 0 -88C-28.2 -66 -28.2 -26.4 0 0Z" fill="#1fbf9a"/></g><g transform="translate(0 -20) rotate(42)"><path d="M0 0C21.8 -20.4 21.8 -51 0 -68C-21.8 -51 -21.8 -20.4 0 0Z" fill="#14a082"/></g><g transform="translate(0 -20) rotate(-62)"><path d="M0 0C14.7 -13.8 14.7 -34.5 0 -46C-14.7 -34.5 -14.7 -13.8 0 0Z" fill="#0f6654"/></g><g transform="translate(0 -20) rotate(62)"><path d="M0 0C14.1 -13.2 14.1 -33 0 -44C-14.1 -33 -14.1 -13.2 0 0Z" fill="#1fbf9a"/></g><path d="M-26 -22h52l-8 44h-36z" fill="#1b1464"/><rect x="-30" y="-28" width="60" height="12" rx="5" fill="#1b1464" /></g><rect width="524" height="654" fill="url(#pgl)"/><rect width="524" height="654" fill="url(#pvg)"/><rect width="524" height="654" filter="url(#pgr)" opacity="0.16" style="mix-blend-mode:soft-light"/></svg>